0
SECTION
2
HEADER
9
$INSUNITS
70
4
9
$ACADVER
1
AC1014
9
$HANDSEED
5
FFFF
0
ENDSEC
0
SECTION
2
TABLES
0
TABLE
2
VPORT
5
8
100
AcDbSymbolTable
0
ENDTAB
0
TABLE
2
LTYPE
5
5
100
AcDbSymbolTable
0
LTYPE
5
14
100
AcDbSymbolTableRecord
100
AcDbLinetypeTableRecord
2
BYBLOCK
70
0
0
LTYPE
5
15
100
AcDbSymbolTableRecord
100
AcDbLinetypeTableRecord
2
BYLAYER
70
0
0
ENDTAB
0
TABLE
2
LAYER
5
2
100
AcDbSymbolTable
70
2
0
LAYER
5
50
100
AcDbSymbolTableRecord
100
AcDbLayerTableRecord
2
0
70
0
6
CONTINUOUS
0
ENDTAB
0
TABLE
2
STYLE
5
3
100
AcDbSymbolTable
70
1
0
STYLE
5
11
100
AcDbSymbolTableRecord
100
AcDbTextStyleTableRecord
2
STANDARD
70
0
0
ENDTAB
0
TABLE
2
VIEW
5
6
100
AcDbSymbolTable
70
0
0
ENDTAB
0
TABLE
2
UCS
5
7
100
AcDbSymbolTable
70
0
0
ENDTAB
0
TABLE
2
APPID
5
9
100
AcDbSymbolTable
70
2
0
APPID
5
12
100
AcDbSymbolTableRecord
100
AcDbRegAppTableRecord
2
ACAD
70
0
0
ENDTAB
0
TABLE
2
DIMSTYLE
5
A
100
AcDbSymbolTable
70
1
0
ENDTAB
0
TABLE
2
BLOCK_RECORD
5
1
100
AcDbSymbolTable
70
1
0
BLOCK_RECORD
5
1F
100
AcDbSymbolTableRecord
100
AcDbBlockTableRecord
2
*MODEL_SPACE
0
BLOCK_RECORD
5
1B
100
AcDbSymbolTableRecord
100
AcDbBlockTableRecord
2
*PAPER_SPACE
0
ENDTAB
0
ENDSEC
0
SECTION
2
BLOCKS
0
BLOCK
5
20
100
AcDbEntity
100
AcDbBlockBegin
2
*MODEL_SPACE
0
ENDBLK
5
21
100
AcDbEntity
100
AcDbBlockEnd
0
BLOCK
5
1C
100
AcDbEntity
100
AcDbBlockBegin
2
*PAPER_SPACE
0
ENDBLK
5
1D
100
AcDbEntity
100
AcDbBlockEnd
0
ENDSEC
0
SECTION
2
ENTITIES
0
LWPOLYLINE
5
100
100
AcDbEntity
8
0
100
AcDbPolyline
90
4
70
1
43
0.0
10
-19.485724629247137
20
11.626973742960452
10
-21.607044972806708
20
13.748294086520168
10
-13.748294086519092
20
21.607044972807223
10
-11.626973742959525
20
19.485724629247507
0
LWPOLYLINE
5
101
100
AcDbEntity
8
0
100
AcDbPolyline
90
4
70
1
43
0.0
10
-21.607044972807206
20
-13.748294086519387
10
-19.485724629247557
20
-11.626973742959745
10
-11.626973742960232
20
-19.485724629247084
10
-13.748294086519874
20
-21.607044972806726
0
LWPOLYLINE
5
102
100
AcDbEntity
8
0
100
AcDbPolyline
90
4
70
1
43
0.0
10
11.626973742959375
20
19.485724629247596
10
13.748294086518925
20
21.60704497280733
10
21.607044972806602
20
13.748294086520335
10
19.485724629247049
20
11.626973742960605
0
LWPOLYLINE
5
103
100
AcDbEntity
8
0
100
AcDbPolyline
90
4
70
1
43
0.0
10
13.748294086520044
20
-21.607044972806619
10
11.626973742960383
20
-19.485724629246995
10
19.485724629247649
20
-11.626973742959592
10
21.607044972807312
20
-13.748294086519216
0
LWPOLYLINE
5
104
100
AcDbEntity
8
0
100
AcDbPolyline
90
4
70
1
43
0.0
10
5.3275580117427034e-14
20
18.312156977127835
10
18.312156977127927
20
-3.5527136788005009e-14
10
6.2172489379008766e-14
20
-18.31215697712793
10
-18.312156977127824
20
-5.3290705182007514e-14
0
LWPOLYLINE
5
105
100
AcDbEntity
8
0
100
AcDbPolyline
90
40
70
1
43
0.0
10
50.157542237602158
20
-32.842457762397594
10
54.500000000000917
20
-28.499999999999041
10
54.500000000000938
20
-8.2586373944184466
10
51.500000000000938
20
-8.2586373944184146
10
51.500000000001037
20
8.2586373944194946
10
54.500000000001016
20
8.2586373944194627
10
54.50000000000113
20
28.500000000000973
10
50.157542237602129
20
32.842457762399526
10
48.036221894042484
20
30.721137418839895
10
43.721137418840428
20
35.036221894041979
10
45.842457762400166
20
37.157542237601554
10
41.500000000001158
20
41.500000000000945
10
8.2586373944191482
20
41.500000000000014
10
8.2586373944191696
20
38.500000000000021
10
-8.2586373944188676
20
38.500000000000021
10
-8.2586373944188445
20
41.500000000000014
10
-41.499999999999247
20
41.500000000000909
10
-45.842457762398254
20
37.157542237601909
10
-43.721137418838538
20
35.036221894042313
10
-48.036221894040622
20
30.721137418840261
10
-50.157542237600254
20
32.842457762399903
10
-54.499999999999275
20
28.500000000000909
10
-54.499999999999325
20
8.2586373944198819
10
-51.499999999999346
20
8.2586373944198854
10
-51.499999999999353
20
-8.2586373944180238
10
-54.499999999999353
20
-8.2586373944180345
10
-54.499999999999417
20
-28.499999999999059
10
-50.157542237600232
20
-32.842457762398055
10
-48.036221894040594
20
-30.721137418838399
10
-43.721137418838516
20
-35.036221894040452
10
-45.842457762398226
20
-37.157542237600033
10
-41.499999999999453
20
-41.499999999999048
10
-8.2586373944187805
20
-41.499999999999844
10
-8.2586373944188747
20
-38.499999999999964
10
8.2586373944191731
20
-38.499999999999964
10
8.2586373944192566
20
-41.499999999999829
10
41.500000000000853
20
-41.499999999999048
10
45.842457762400187
20
-37.157542237599607
10
43.721137418840456
20
-35.036221894040104
10
48.036221894042512
20
-30.721137418837955
0
ENDSEC
0
SECTION
2
OBJECTS
0
DICTIONARY
5
C
100
AcDbDictionary
3
ACAD_GROUP
350
D
3
ACAD_MLINESTYLE
350
17
0
DICTIONARY
5
D
100
AcDbDictionary
0
DICTIONARY
5
1A
330
C
100
AcDbDictionary
0
DICTIONARY
5
17
100
AcDbDictionary
0
ENDSEC
0
EOF
