0
SECTION
2
HEADER
9
$INSUNITS
70
4
9
$ACADVER
1
AC1014
9
$HANDSEED
5
FFFF
0
ENDSEC
0
SECTION
2
TABLES
0
TABLE
2
VPORT
5
8
100
AcDbSymbolTable
0
ENDTAB
0
TABLE
2
LTYPE
5
5
100
AcDbSymbolTable
0
LTYPE
5
14
100
AcDbSymbolTableRecord
100
AcDbLinetypeTableRecord
2
BYBLOCK
70
0
0
LTYPE
5
15
100
AcDbSymbolTableRecord
100
AcDbLinetypeTableRecord
2
BYLAYER
70
0
0
ENDTAB
0
TABLE
2
LAYER
5
2
100
AcDbSymbolTable
70
2
0
LAYER
5
50
100
AcDbSymbolTableRecord
100
AcDbLayerTableRecord
2
0
70
0
6
CONTINUOUS
0
ENDTAB
0
TABLE
2
STYLE
5
3
100
AcDbSymbolTable
70
1
0
STYLE
5
11
100
AcDbSymbolTableRecord
100
AcDbTextStyleTableRecord
2
STANDARD
70
0
0
ENDTAB
0
TABLE
2
VIEW
5
6
100
AcDbSymbolTable
70
0
0
ENDTAB
0
TABLE
2
UCS
5
7
100
AcDbSymbolTable
70
0
0
ENDTAB
0
TABLE
2
APPID
5
9
100
AcDbSymbolTable
70
2
0
APPID
5
12
100
AcDbSymbolTableRecord
100
AcDbRegAppTableRecord
2
ACAD
70
0
0
ENDTAB
0
TABLE
2
DIMSTYLE
5
A
100
AcDbSymbolTable
70
1
0
ENDTAB
0
TABLE
2
BLOCK_RECORD
5
1
100
AcDbSymbolTable
70
1
0
BLOCK_RECORD
5
1F
100
AcDbSymbolTableRecord
100
AcDbBlockTableRecord
2
*MODEL_SPACE
0
BLOCK_RECORD
5
1B
100
AcDbSymbolTableRecord
100
AcDbBlockTableRecord
2
*PAPER_SPACE
0
ENDTAB
0
ENDSEC
0
SECTION
2
BLOCKS
0
BLOCK
5
20
100
AcDbEntity
100
AcDbBlockBegin
2
*MODEL_SPACE
0
ENDBLK
5
21
100
AcDbEntity
100
AcDbBlockEnd
0
BLOCK
5
1C
100
AcDbEntity
100
AcDbBlockBegin
2
*PAPER_SPACE
0
ENDBLK
5
1D
100
AcDbEntity
100
AcDbBlockEnd
0
ENDSEC
0
SECTION
2
ENTITIES
0
CIRCLE
5
100
100
AcDbEntity
8
0
100
AcDbCircle
10
5.1081063698494837
20
-28.205512919446264
30
0
40
1.5000000000000002
210
0
220
-0
230
1
0
CIRCLE
5
101
100
AcDbEntity
8
0
100
AcDbCircle
10
38.139843591341574
20
23.843164967001066
30
0
40
1.5000000000000036
210
0
220
-0
230
1
0
CIRCLE
5
102
100
AcDbEntity
8
0
100
AcDbCircle
10
-10.118920185553613
20
22.604670627565056
30
0
40
1.4999999999999991
210
0
220
-0
230
1
0
CIRCLE
5
103
100
AcDbEntity
8
0
100
AcDbCircle
10
33.021002601455429
20
-28.189606603376202
30
0
40
1.4999999999999969
210
0
220
-0
230
1
0
LWPOLYLINE
5
104
100
AcDbEntity
8
0
100
AcDbPolyline
90
40
70
1
43
0.0
10
-50.157542237602158
20
-32.842457762397601
10
-48.036221894042512
20
-30.721137418837955
10
-43.721137418840456
20
-35.036221894040104
10
-45.842457762400187
20
-37.1575422375996
10
-41.500000000000846
20
-41.499999999999055
10
-8.2586373944192548
20
-41.499999999999829
10
-8.2586373944191731
20
-38.499999999999964
10
8.2586373944188747
20
-38.499999999999972
10
8.2586373944187805
20
-41.499999999999844
10
41.499999999999453
20
-41.499999999999055
10
45.842457762398226
20
-37.15754223760004
10
43.721137418838516
20
-35.036221894040452
10
48.036221894040594
20
-30.721137418838396
10
50.157542237600232
20
-32.842457762398055
10
54.499999999999417
20
-28.499999999999062
10
54.499999999999353
20
-8.2586373944180345
10
51.499999999999353
20
-8.2586373944180238
10
51.499999999999346
20
8.2586373944198872
10
54.499999999999325
20
8.2586373944198801
10
54.499999999999275
20
28.500000000000909
10
50.157542237600254
20
32.842457762399903
10
48.036221894040622
20
30.721137418840261
10
43.721137418838538
20
35.036221894042313
10
45.842457762398254
20
37.157542237601909
10
41.499999999999247
20
41.500000000000909
10
8.2586373944188409
20
41.500000000000014
10
8.2586373944188676
20
38.500000000000021
10
-8.2586373944191696
20
38.500000000000021
10
-8.2586373944191465
20
41.500000000000014
10
-41.500000000001158
20
41.500000000000945
10
-45.842457762400166
20
37.157542237601554
10
-43.721137418840428
20
35.036221894041979
10
-48.036221894042484
20
30.721137418839895
10
-50.157542237602129
20
32.842457762399526
10
-54.50000000000113
20
28.500000000000973
10
-54.500000000001016
20
8.2586373944194627
10
-51.500000000001037
20
8.2586373944194928
10
-51.500000000000938
20
-8.2586373944184164
10
-54.500000000000938
20
-8.2586373944184448
10
-54.500000000000917
20
-28.499999999999048
0
ENDSEC
0
SECTION
2
OBJECTS
0
DICTIONARY
5
C
100
AcDbDictionary
3
ACAD_GROUP
350
D
3
ACAD_MLINESTYLE
350
17
0
DICTIONARY
5
D
100
AcDbDictionary
0
DICTIONARY
5
1A
330
C
100
AcDbDictionary
0
DICTIONARY
5
17
100
AcDbDictionary
0
ENDSEC
0
EOF
