0
SECTION
2
HEADER
9
$INSUNITS
70
4
9
$ACADVER
1
AC1014
9
$HANDSEED
5
FFFF
0
ENDSEC
0
SECTION
2
TABLES
0
TABLE
2
VPORT
5
8
100
AcDbSymbolTable
0
ENDTAB
0
TABLE
2
LTYPE
5
5
100
AcDbSymbolTable
0
LTYPE
5
14
100
AcDbSymbolTableRecord
100
AcDbLinetypeTableRecord
2
BYBLOCK
70
0
0
LTYPE
5
15
100
AcDbSymbolTableRecord
100
AcDbLinetypeTableRecord
2
BYLAYER
70
0
0
ENDTAB
0
TABLE
2
LAYER
5
2
100
AcDbSymbolTable
70
2
0
LAYER
5
50
100
AcDbSymbolTableRecord
100
AcDbLayerTableRecord
2
0
70
0
6
CONTINUOUS
0
ENDTAB
0
TABLE
2
STYLE
5
3
100
AcDbSymbolTable
70
1
0
STYLE
5
11
100
AcDbSymbolTableRecord
100
AcDbTextStyleTableRecord
2
STANDARD
70
0
0
ENDTAB
0
TABLE
2
VIEW
5
6
100
AcDbSymbolTable
70
0
0
ENDTAB
0
TABLE
2
UCS
5
7
100
AcDbSymbolTable
70
0
0
ENDTAB
0
TABLE
2
APPID
5
9
100
AcDbSymbolTable
70
2
0
APPID
5
12
100
AcDbSymbolTableRecord
100
AcDbRegAppTableRecord
2
ACAD
70
0
0
ENDTAB
0
TABLE
2
DIMSTYLE
5
A
100
AcDbSymbolTable
70
1
0
ENDTAB
0
TABLE
2
BLOCK_RECORD
5
1
100
AcDbSymbolTable
70
1
0
BLOCK_RECORD
5
1F
100
AcDbSymbolTableRecord
100
AcDbBlockTableRecord
2
*MODEL_SPACE
0
BLOCK_RECORD
5
1B
100
AcDbSymbolTableRecord
100
AcDbBlockTableRecord
2
*PAPER_SPACE
0
ENDTAB
0
ENDSEC
0
SECTION
2
BLOCKS
0
BLOCK
5
20
100
AcDbEntity
100
AcDbBlockBegin
2
*MODEL_SPACE
0
ENDBLK
5
21
100
AcDbEntity
100
AcDbBlockEnd
0
BLOCK
5
1C
100
AcDbEntity
100
AcDbBlockBegin
2
*PAPER_SPACE
0
ENDBLK
5
1D
100
AcDbEntity
100
AcDbBlockEnd
0
ENDSEC
0
SECTION
2
ENTITIES
0
LWPOLYLINE
5
100
100
AcDbEntity
8
0
100
AcDbPolyline
90
4
70
1
43
0.0
10
-15.12806309556381
20
57.610802436928196
10
-15.128063095563821
20
58.722530896404173
10
15.128063095610036
20
58.722530896404173
10
15.128063095610027
20
57.610802436928196
0
LWPOLYLINE
5
101
100
AcDbEntity
8
0
100
AcDbPolyline
90
4
70
1
43
0.0
10
-15.12806309556381
20
60.277469103594861
10
-15.128063095563821
20
61.389197563070837
10
15.128063095610036
20
61.389197563070837
10
15.128063095610027
20
60.277469103594861
0
LWPOLYLINE
5
102
100
AcDbEntity
8
0
100
AcDbPolyline
90
4
70
1
43
0.0
10
-15.12806309556381
20
70.944135770261525
10
-15.128063095563821
20
72.055864229737509
10
15.128063095610036
20
72.055864229737509
10
15.128063095610027
20
70.944135770261525
0
LWPOLYLINE
5
103
100
AcDbEntity
8
0
100
AcDbPolyline
90
4
70
1
43
0.0
10
-15.12806309556381
20
54.944135770261525
10
-15.128063095563821
20
56.055864229737509
10
15.128063095610036
20
56.055864229737509
10
15.128063095610027
20
54.944135770261525
0
LWPOLYLINE
5
104
100
AcDbEntity
8
0
100
AcDbPolyline
90
4
70
1
43
0.0
10
-15.12806309556381
20
68.277469103594854
10
-15.128063095563821
20
69.389197563070837
10
15.128063095610036
20
69.389197563070837
10
15.128063095610027
20
68.277469103594854
0
LWPOLYLINE
5
105
100
AcDbEntity
8
0
100
AcDbPolyline
90
4
70
1
43
0.0
10
-15.12806309556381
20
65.610802436928196
10
-15.128063095563821
20
66.72253089640418
10
15.128063095610036
20
66.72253089640418
10
15.128063095610027
20
65.610802436928196
0
LWPOLYLINE
5
106
100
AcDbEntity
8
0
100
AcDbPolyline
90
4
70
1
43
0.0
10
-15.12806309556381
20
62.944135770261525
10
-15.128063095563821
20
64.055864229737509
10
15.128063095610036
20
64.055864229737509
10
15.128063095610027
20
62.944135770261525
0
LWPOLYLINE
5
107
100
AcDbEntity
8
0
100
AcDbPolyline
90
20
70
1
43
0.0
10
5.5569760433490067
20
46
10
21.999999999999432
20
46
10
21.999999999999446
20
57.472414749093936
10
24.999999999999432
20
57.472414749093936
10
24.999999999999432
20
69.5275852509061
10
21.999999999999439
20
69.5275852509061
10
21.999999999999439
20
81
10
5.5569760433490023
20
81
10
5.5569760433490023
20
84
10
-5.5569760433501258
20
84
10
-5.556976043350125
20
81
10
-22.000000000000526
20
81
10
-22.00000000000054
20
69.527585250906071
10
-25.000000000000519
20
69.527585250906071
10
-25.000000000000519
20
57.472414749093915
10
-22.000000000000533
20
57.472414749093915
10
-22.000000000000522
20
46
10
-5.5569760433501241
20
46
10
-5.5569760433501241
20
43
10
5.5569760433490085
20
43
0
ENDSEC
0
SECTION
2
OBJECTS
0
DICTIONARY
5
C
100
AcDbDictionary
3
ACAD_GROUP
350
D
3
ACAD_MLINESTYLE
350
17
0
DICTIONARY
5
D
100
AcDbDictionary
0
DICTIONARY
5
1A
330
C
100
AcDbDictionary
0
DICTIONARY
5
17
100
AcDbDictionary
0
ENDSEC
0
EOF
