0
SECTION
2
HEADER
9
$INSUNITS
70
4
9
$ACADVER
1
AC1014
9
$HANDSEED
5
FFFF
0
ENDSEC
0
SECTION
2
TABLES
0
TABLE
2
VPORT
5
8
100
AcDbSymbolTable
0
ENDTAB
0
TABLE
2
LTYPE
5
5
100
AcDbSymbolTable
0
LTYPE
5
14
100
AcDbSymbolTableRecord
100
AcDbLinetypeTableRecord
2
BYBLOCK
70
0
0
LTYPE
5
15
100
AcDbSymbolTableRecord
100
AcDbLinetypeTableRecord
2
BYLAYER
70
0
0
ENDTAB
0
TABLE
2
LAYER
5
2
100
AcDbSymbolTable
70
2
0
LAYER
5
50
100
AcDbSymbolTableRecord
100
AcDbLayerTableRecord
2
0
70
0
6
CONTINUOUS
0
ENDTAB
0
TABLE
2
STYLE
5
3
100
AcDbSymbolTable
70
1
0
STYLE
5
11
100
AcDbSymbolTableRecord
100
AcDbTextStyleTableRecord
2
STANDARD
70
0
0
ENDTAB
0
TABLE
2
VIEW
5
6
100
AcDbSymbolTable
70
0
0
ENDTAB
0
TABLE
2
UCS
5
7
100
AcDbSymbolTable
70
0
0
ENDTAB
0
TABLE
2
APPID
5
9
100
AcDbSymbolTable
70
2
0
APPID
5
12
100
AcDbSymbolTableRecord
100
AcDbRegAppTableRecord
2
ACAD
70
0
0
ENDTAB
0
TABLE
2
DIMSTYLE
5
A
100
AcDbSymbolTable
70
1
0
ENDTAB
0
TABLE
2
BLOCK_RECORD
5
1
100
AcDbSymbolTable
70
1
0
BLOCK_RECORD
5
1F
100
AcDbSymbolTableRecord
100
AcDbBlockTableRecord
2
*MODEL_SPACE
0
BLOCK_RECORD
5
1B
100
AcDbSymbolTableRecord
100
AcDbBlockTableRecord
2
*PAPER_SPACE
0
ENDTAB
0
ENDSEC
0
SECTION
2
BLOCKS
0
BLOCK
5
20
100
AcDbEntity
100
AcDbBlockBegin
2
*MODEL_SPACE
0
ENDBLK
5
21
100
AcDbEntity
100
AcDbBlockEnd
0
BLOCK
5
1C
100
AcDbEntity
100
AcDbBlockBegin
2
*PAPER_SPACE
0
ENDBLK
5
1D
100
AcDbEntity
100
AcDbBlockEnd
0
ENDSEC
0
SECTION
2
ENTITIES
0
LWPOLYLINE
5
100
100
AcDbEntity
8
0
100
AcDbPolyline
90
4
70
1
43
0.0
10
-2.6408672925157446
20
-12.965408056796605
10
-8.7410379123473252
20
-19.065578676628185
10
-19.033078924521675
20
-8.7735376644538281
10
-12.932908304690098
20
-2.6733670446222479
0
CIRCLE
5
101
100
AcDbEntity
8
0
100
AcDbCircle
10
-9.7694972032021106
20
10.247498372251149
30
0
40
3.1432865290309833
210
0
220
0
230
1
0
CIRCLE
5
102
100
AcDbEntity
8
0
100
AcDbCircle
10
10.441717554604882
20
-9.9973851199977624
30
0
40
2.9322834064353982
210
0
220
0
230
1
0
LWPOLYLINE
5
103
100
AcDbEntity
8
0
100
AcDbPolyline
90
4
70
1
43
0.0
10
11.288117040441914
20
0.31242616144226765
10
0.045278609031498274
20
11.555264592852723
10
2.8457369144407623
20
14.355722898261977
10
14.08857534585117
20
3.1128844668515132
0
LWPOLYLINE
5
104
100
AcDbEntity
8
0
100
AcDbPolyline
90
20
70
1
43
0.0
10
1.3766765505351941e-13
20
35.355339059327974
10
-13.748294086519852
20
21.607044972807987
10
-11.626973742959525
20
19.485724629247507
10
-19.485724629247137
20
11.626973742960454
10
-21.607044972807188
20
13.748294086520655
10
-35.355339059327207
20
6.3948846218409017e-13
10
-21.607044972807206
20
-13.74829408651939
10
-19.485724629247557
20
-11.626973742959743
10
-11.626973742960232
20
-19.485724629247088
10
-13.748294086519874
20
-21.607044972806733
10
1.3766765505351941e-13
20
-35.355339059326766
10
13.748294086520174
20
-21.607044972806754
10
11.626973742960383
20
-19.485724629246999
10
19.485724629247649
20
-11.626973742959592
10
21.607044972807515
20
-13.748294086519417
10
35.355339059327505
20
5.4178883601707639e-13
10
21.607044972807167
20
13.7482940865209
10
19.485724629247049
20
11.626973742960605
10
11.626973742959375
20
19.485724629247599
10
13.748294086519838
20
21.607044972808247
0
ENDSEC
0
SECTION
2
OBJECTS
0
DICTIONARY
5
C
100
AcDbDictionary
3
ACAD_GROUP
350
D
3
ACAD_MLINESTYLE
350
17
0
DICTIONARY
5
D
100
AcDbDictionary
0
DICTIONARY
5
1A
330
C
100
AcDbDictionary
0
DICTIONARY
5
17
100
AcDbDictionary
0
ENDSEC
0
EOF
