0
SECTION
2
HEADER
9
$INSUNITS
70
4
9
$ACADVER
1
AC1014
9
$HANDSEED
5
FFFF
0
ENDSEC
0
SECTION
2
TABLES
0
TABLE
2
VPORT
5
8
100
AcDbSymbolTable
0
ENDTAB
0
TABLE
2
LTYPE
5
5
100
AcDbSymbolTable
0
LTYPE
5
14
100
AcDbSymbolTableRecord
100
AcDbLinetypeTableRecord
2
BYBLOCK
70
0
0
LTYPE
5
15
100
AcDbSymbolTableRecord
100
AcDbLinetypeTableRecord
2
BYLAYER
70
0
0
ENDTAB
0
TABLE
2
LAYER
5
2
100
AcDbSymbolTable
70
2
0
LAYER
5
50
100
AcDbSymbolTableRecord
100
AcDbLayerTableRecord
2
0
70
0
6
CONTINUOUS
0
ENDTAB
0
TABLE
2
STYLE
5
3
100
AcDbSymbolTable
70
1
0
STYLE
5
11
100
AcDbSymbolTableRecord
100
AcDbTextStyleTableRecord
2
STANDARD
70
0
0
ENDTAB
0
TABLE
2
VIEW
5
6
100
AcDbSymbolTable
70
0
0
ENDTAB
0
TABLE
2
UCS
5
7
100
AcDbSymbolTable
70
0
0
ENDTAB
0
TABLE
2
APPID
5
9
100
AcDbSymbolTable
70
2
0
APPID
5
12
100
AcDbSymbolTableRecord
100
AcDbRegAppTableRecord
2
ACAD
70
0
0
ENDTAB
0
TABLE
2
DIMSTYLE
5
A
100
AcDbSymbolTable
70
1
0
ENDTAB
0
TABLE
2
BLOCK_RECORD
5
1
100
AcDbSymbolTable
70
1
0
BLOCK_RECORD
5
1F
100
AcDbSymbolTableRecord
100
AcDbBlockTableRecord
2
*MODEL_SPACE
0
BLOCK_RECORD
5
1B
100
AcDbSymbolTableRecord
100
AcDbBlockTableRecord
2
*PAPER_SPACE
0
ENDTAB
0
ENDSEC
0
SECTION
2
BLOCKS
0
BLOCK
5
20
100
AcDbEntity
100
AcDbBlockBegin
2
*MODEL_SPACE
0
ENDBLK
5
21
100
AcDbEntity
100
AcDbBlockEnd
0
BLOCK
5
1C
100
AcDbEntity
100
AcDbBlockBegin
2
*PAPER_SPACE
0
ENDBLK
5
1D
100
AcDbEntity
100
AcDbBlockEnd
0
ENDSEC
0
SECTION
2
ENTITIES
0
LWPOLYLINE
5
100
100
AcDbEntity
8
0
100
AcDbPolyline
90
6
70
1
43
0.0
10
56.825000000000017
20
7.9999999999999583
10
47.825000000000017
20
7.9999999999999583
10
47.825000000000024
20
18.499999999999964
42
-0.41421356237309892
10
48.325000000000024
20
18.999999999999975
10
56.32500000000001
20
18.999999999999982
42
-0.41421356237310025
10
56.825000000000017
20
18.499999999999964
0
LINE
5
101
100
AcDbEntity
8
0
100
AcDbLine
10
27.999999999999993
20
8.4299999999999393
30
0
11
15.959999999999987
21
8.4299999999999393
31
0
0
LINE
5
102
100
AcDbEntity
8
0
100
AcDbLine
10
15.959999999999987
20
8.4299999999999393
30
0
11
15.959999999999985
21
18.590000000000046
31
0
0
SPLINE
5
103
100
AcDbEntity
8
0
100
AcDbSpline
70
0
71
3
72
14
73
10
74
0
42
0.000000001
43
0.0000000001
44
0.0000000001
40
0
40
0
40
0
40
0
40
0.018305167495528178
40
0.018305167495528178
40
0.036605755272675164
40
0.036605755272675164
40
0.054906324113145388
40
0.054906324113145388
40
0.073178329404755577
40
0.073178329404755577
40
0.073178329404755577
40
0.073178329404755577
10
15.959999999999987
20
18.590000000000042
30
0
10
15.959999999999994
20
18.650441145374653
30
0
10
15.971912423193316
20
18.710294508616066
30
0
10
16.018192254406401
20
18.821952480286352
30
0
10
16.052103370472746
20
18.87267183672131
30
0
10
16.137588809017871
20
18.958096738568202
30
0
10
16.188332145351325
20
18.991971895771794
30
0
10
16.299921453698843
20
19.038130732334942
30
0
10
16.35966843481684
20
19.049999999999983
30
0
10
16.419999999999987
20
19.049999999999983
30
0
0
LINE
5
104
100
AcDbEntity
8
0
100
AcDbLine
10
16.419999999999984
20
19.049999999999983
30
0
11
27.539999999999992
21
19.049999999999983
31
0
0
SPLINE
5
105
100
AcDbEntity
8
0
100
AcDbSpline
70
0
71
3
72
14
73
10
74
0
42
0.000000001
43
0.0000000001
44
0.0000000001
40
0
40
0
40
0
40
0
40
0.018305167444551504
40
0.018305167444551504
40
0.036605757075082811
40
0.036605757075082811
40
0.054906326871724545
40
0.054906326871724545
40
0.073178332112113359
40
0.073178332112113359
40
0.073178332112113359
40
0.073178332112113359
10
27.539999999999992
20
19.049999999999983
30
0
10
27.600441145206286
20
19.049999999999983
30
0
10
27.66029450828427
20
19.038087576873014
30
0
10
27.771952485502688
20
18.991807743502644
30
0
10
27.822671837918303
20
18.957896626562022
30
0
10
27.908096733509808
20
18.872411194276726
30
0
10
27.941971894816682
20
18.82166785712959
30
0
10
27.988130732401192
20
18.710078545969292
30
0
10
27.999999999999993
20
18.650331565014756
30
0
10
27.999999999999989
20
18.589999999999961
30
0
0
LINE
5
106
100
AcDbEntity
8
0
100
AcDbLine
10
27.999999999999989
20
18.589999999999961
30
0
11
27.999999999999993
21
8.4299999999999393
31
0
0
LWPOLYLINE
5
107
100
AcDbEntity
8
0
100
AcDbPolyline
90
24
70
1
43
0.0
10
-43.099622442390327
20
58.552450515596433
10
-41.201197890825668
20
56.229524726420948
10
-54.659522253621624
20
45.230631213631931
10
-56.557946805186276
20
47.553557002807416
10
-64.999999999999972
20
40.654240147602266
10
-61.999999999999964
20
40.654240147602266
10
-61.999999999999964
20
25.345759852397727
10
-64.999999999999972
20
25.345759852397727
10
-64.999999999999986
20
2.9999999999999982
10
-17.09155654695796
20
3.0000000000000004
10
-17.091556546957968
20
0
10
17.091556546957975
20
0
10
17.091556546957975
20
3.0000000000000004
10
65
20
3.0000000000000004
10
65
20
25.345759852397727
10
62
20
25.345759852397727
10
62
20
40.654240147602266
10
65
20
40.654240147602266
10
65
20
63
10
17.091556546957982
20
63
10
17.091556546957975
20
66
10
-17.091556546957968
20
66
10
-17.091556546957968
20
63
10
-37.65756924757666
20
63
0
ENDSEC
0
SECTION
2
OBJECTS
0
DICTIONARY
5
C
100
AcDbDictionary
3
ACAD_GROUP
350
D
3
ACAD_MLINESTYLE
350
17
0
DICTIONARY
5
D
100
AcDbDictionary
0
DICTIONARY
5
1A
330
C
100
AcDbDictionary
0
DICTIONARY
5
17
100
AcDbDictionary
0
ENDSEC
0
EOF
