0
SECTION
2
HEADER
9
$INSUNITS
70
4
9
$ACADVER
1
AC1014
9
$HANDSEED
5
FFFF
0
ENDSEC
0
SECTION
2
TABLES
0
TABLE
2
VPORT
5
8
100
AcDbSymbolTable
0
ENDTAB
0
TABLE
2
LTYPE
5
5
100
AcDbSymbolTable
0
LTYPE
5
14
100
AcDbSymbolTableRecord
100
AcDbLinetypeTableRecord
2
BYBLOCK
70
0
0
LTYPE
5
15
100
AcDbSymbolTableRecord
100
AcDbLinetypeTableRecord
2
BYLAYER
70
0
0
ENDTAB
0
TABLE
2
LAYER
5
2
100
AcDbSymbolTable
70
2
0
LAYER
5
50
100
AcDbSymbolTableRecord
100
AcDbLayerTableRecord
2
0
70
0
6
CONTINUOUS
0
ENDTAB
0
TABLE
2
STYLE
5
3
100
AcDbSymbolTable
70
1
0
STYLE
5
11
100
AcDbSymbolTableRecord
100
AcDbTextStyleTableRecord
2
STANDARD
70
0
0
ENDTAB
0
TABLE
2
VIEW
5
6
100
AcDbSymbolTable
70
0
0
ENDTAB
0
TABLE
2
UCS
5
7
100
AcDbSymbolTable
70
0
0
ENDTAB
0
TABLE
2
APPID
5
9
100
AcDbSymbolTable
70
2
0
APPID
5
12
100
AcDbSymbolTableRecord
100
AcDbRegAppTableRecord
2
ACAD
70
0
0
ENDTAB
0
TABLE
2
DIMSTYLE
5
A
100
AcDbSymbolTable
70
1
0
ENDTAB
0
TABLE
2
BLOCK_RECORD
5
1
100
AcDbSymbolTable
70
1
0
BLOCK_RECORD
5
1F
100
AcDbSymbolTableRecord
100
AcDbBlockTableRecord
2
*MODEL_SPACE
0
BLOCK_RECORD
5
1B
100
AcDbSymbolTableRecord
100
AcDbBlockTableRecord
2
*PAPER_SPACE
0
ENDTAB
0
ENDSEC
0
SECTION
2
BLOCKS
0
BLOCK
5
20
100
AcDbEntity
100
AcDbBlockBegin
2
*MODEL_SPACE
0
ENDBLK
5
21
100
AcDbEntity
100
AcDbBlockEnd
0
BLOCK
5
1C
100
AcDbEntity
100
AcDbBlockBegin
2
*PAPER_SPACE
0
ENDBLK
5
1D
100
AcDbEntity
100
AcDbBlockEnd
0
ENDSEC
0
SECTION
2
ENTITIES
0
LWPOLYLINE
5
100
100
AcDbEntity
8
0
100
AcDbPolyline
90
4
70
1
43
0.0
10
-56.940247064875891
20
45.150819468729082
10
-56.940247064875891
20
49.15081946872909
10
-41.940247064875891
20
49.15081946872909
10
-41.940247064875891
20
45.150819468729082
0
CIRCLE
5
101
100
AcDbEntity
8
0
100
AcDbCircle
10
-49.440247064875905
20
35.143912472024304
30
0
40
3.499999999999996
210
0
220
0
230
1
0
LWPOLYLINE
5
102
100
AcDbEntity
8
0
100
AcDbPolyline
90
4
70
1
43
0.0
10
-57.440247064875862
20
63.15081946872909
10
-57.440247064875877
20
83.150819468729097
10
-41.440247064875862
20
83.150819468729097
10
-41.440247064875862
20
63.15081946872909
0
CIRCLE
5
103
100
AcDbEntity
8
0
100
AcDbCircle
10
-49.440247064875933
20
23.85124153903562
30
0
40
3.5000000000000053
210
0
220
0
230
1
0
LWPOLYLINE
5
104
100
AcDbEntity
8
0
100
AcDbPolyline
90
20
70
1
43
0.0
10
33.986747901643817
20
-100
10
33.986747901643845
20
100
10
17.091556546957982
20
100
10
17.091556546957982
20
97
10
-17.091556546957953
20
97
10
-17.091556546957953
20
100
10
-64.999999999999986
20
100
10
-65
20
66.878943000411169
10
-62.000000000000014
20
66.878943000411169
10
-62.000000000000014
20
46.359793104725384
10
-65
20
46.359793104725384
10
-64.999999999999986
20
-46.359793104725362
10
-61.999999999999993
20
-46.35979310472537
10
-61.999999999999993
20
-66.878943000411169
10
-64.999999999999986
20
-66.878943000411169
10
-64.999999999999986
20
-99.999999999999986
10
-17.091556546957953
20
-99.999999999999986
10
-17.091556546957953
20
-97.000000000000014
10
17.091556546957982
20
-97.000000000000014
10
17.091556546957982
20
-99.999999999999986
0
ENDSEC
0
SECTION
2
OBJECTS
0
DICTIONARY
5
C
100
AcDbDictionary
3
ACAD_GROUP
350
D
3
ACAD_MLINESTYLE
350
17
0
DICTIONARY
5
D
100
AcDbDictionary
0
DICTIONARY
5
1A
330
C
100
AcDbDictionary
0
DICTIONARY
5
17
100
AcDbDictionary
0
ENDSEC
0
EOF
